<svg width="1200" height="630" xmlns="http://www.w3.org/2000/svg">
  <defs>
    <linearGradient id="bg" x1="0%" y1="0%" x2="100%" y2="100%">
      <stop offset="0%" style="stop-color:#0a6e8a"/>
      <stop offset="100%" style="stop-color:#0d8aa8"/>
    </linearGradient>
  </defs>
  <rect width="1200" height="630" fill="url(#bg)"/>
  <!-- Wave decoration -->
  <path d="M0 480 Q150 440 300 470 Q450 500 600 460 Q750 420 900 450 Q1050 480 1200 440 L1200 630 L0 630 Z" fill="rgba(255,255,255,0.08)"/>
  <path d="M0 520 Q150 490 300 510 Q450 530 600 500 Q750 470 900 500 Q1050 530 1200 490 L1200 630 L0 630 Z" fill="rgba(255,255,255,0.05)"/>
  <!-- Logo waves -->
  <g transform="translate(460, 160)">
    <rect width="80" height="80" rx="16" fill="rgba(255,255,255,0.15)"/>
    <path d="M18 38 Q30 28 40 38 Q50 48 62 38" stroke="white" stroke-width="4" stroke-linecap="round" fill="none"/>
    <path d="M18 50 Q30 40 40 50 Q50 60 62 50" stroke="white" stroke-width="4" stroke-linecap="round" fill="none"/>
  </g>
  <!-- Text -->
  <text x="600" y="310" text-anchor="middle" font-family="system-ui, -apple-system, sans-serif" font-size="72" font-weight="700" fill="white">
    Amahi<tspan fill="#7dd3e8">-kai</tspan>
  </text>
  <text x="600" y="370" text-anchor="middle" font-family="system-ui, -apple-system, sans-serif" font-size="28" fill="rgba(255,255,255,0.85)">
    Your Home Server, Modernized
  </text>
  <text x="600" y="420" text-anchor="middle" font-family="system-ui, -apple-system, sans-serif" font-size="20" fill="rgba(255,255,255,0.6)">
    Open-source NAS · Media · Apps · Networking
  </text>
</svg>
